<svg width="800" height="800" viewBox="0 0 800 800" fill="none" xmlns="http://www.w3.org/2000/svg">
<path d="M43.5 68L40.5 62L56 55L66.5 58L72.5 56.5L79 58L83.5 56.5L88 58.5L95.5 54.5L108 66.5L110.5 75.5L149 122.5L197.5 155.5L248 174.5H259.5L258 188.5L267 182.5L295.5 181L298 176L301.5 179.5L326 176V157L331 151.5L360.5 145.5L363.5 165L377 163L377.5 171L390 188.5L391.5 223.5L377 216.5L346.5 221.5L329 219.5V214L316 222.5L348.5 274V291.5H339L333 312.5L316 329L313 339H301L296.5 341.5L291.5 337H280V352.5H264.5L262 364L267 369.5V388.5H243.5L241 376L150 383H116V369.5L122 352.5H128.5L131 333.5L135 327L131 320L133 305L131 300.5H122H106L118.5 288L131 283L62.5 257L55 260L40.5 251.5L43.5 229.5L48 226.5V219.5H40.5L37 177V139.5L43.5 123V114L48 101H59L62.5 94.5L55 82.5L48 86V90H43.5V68Z" fill="#D9D9D9"/>
<path d="M166.5 385L236 379.5L239 393.5H272V366.5L268.5 363L269.5 358H280L284.5 354.5V342.5H291.5L296.5 346.5L301 344L313 365.5L310 397H325.5L379.5 352.5L382.5 333.5L437.5 347L447.5 344L466.5 354.5L465 365.5H475.5L473.5 376L483 379.5V401L488 410L483 415.5L478 437L480.5 449.5L468.5 454.5L473.5 474L459.5 480L461.5 497.5L442.5 520V541.5L455 559L447.5 575L467.5 590.5L465 606.5L455 600L451 612.5L419 622.5V631L429.5 638.5L421.5 659L424 671V685L421.5 706.5L414 714.5L364 719L348 737.5L313 742L306.5 737.5L303.5 698.5L318.5 688V671L322.5 659H328.5L335 638.5L343 631V618.5L348 612.5L270 615L258.5 600L262 583.5L252 580L247.5 564.5H241V548.5L223 541.5L229.5 520L202.5 510L205 484.5L202.5 477L207.5 456.5L194 449.5L188.5 441.5L194 424.5L188.5 413H181.5L185 401L166.5 385Z" fill="#D9D9D9"/>
<path d="M381 169V161.5L399 159V171L412.5 180L417 190L421 177L437 184L442 169L439 150.5L447 147.5L464 197.5L476 194.5L474 205.5L517.5 230.5L527.5 227.5L511 261.5V299.5H486.5L450 326.5L461 329L459 336L449 333.5L446.5 340L437.5 342.5L384 328L379.5 329L376 351L323 393.5H314.5L317.5 365.5L306 344H316L319.5 331.5L337 315L342.5 295H352.5L353.5 274L322 224.5L326 221.5L331 226H346.5L377 221.5L390 227.5H399L394.5 222L393.5 187.5L381 169Z" fill="#D9D9D9"/>
<path d="M516 261.5L527.5 237L564 263.5L601.5 280L635 281.5L629.5 247.5L634 220L647 222L668 216.5L676.5 201V209.5H686V229.5H698.5L713.5 216.5L724 223L728.5 210.5L733.5 212.5L755 207V234.5L762.5 255.5L760.5 285.5L753 315L747.5 316L743.5 320.5V335L732.5 351L724.5 353L716.5 370.5H703L696 382.5L692.5 412.5L685.5 416L687 453L677.5 457.5L629 460.5L626.5 449.5L619.5 463.5H608.5L601 459V468.5L587.5 474V499L602.5 505L597 530L600.5 539L605.5 560.5L602.5 565L609.5 572.5L614 567.5L630.5 580.5L627.5 603L633.5 610.5L627.5 626.5L630.5 635L621.5 644L627.5 649V659L623 685H619L617.5 716L611 724L615.5 734L611 743L596 734L591 726.5L589.5 734L575.5 751L562.5 756L548.5 748.5L542.5 760.5L536 761.5L531.5 754.5L533 745L526.5 743L519.5 732L503 729L510.5 718.5L503 710.5L481 721L467.5 705V694.5L471 689.5L454 683.5L445 673V670L429.5 671L427 659L436.5 638.5L426 628V625.5L454 616.5L458 609L467.5 614L472.5 589L455 573.5L461.5 559L447.5 540V521.5L467.5 502L464.5 483L479 476L475.5 457.5L485.5 451.5L482 438.5L486.5 418L493.5 421V410L488 401L490 378L480.5 373L482 365.5L486.5 361H470L472 353.5L461 347L451 338L462 340L465 326.5L458 325L488 304H515L516 261.5Z" fill="#D9D9D9"/>
<path d="M110.5 62.5L102 54.5L120 46.5H130.5L136.5 38L139.5 43L114.5 60L139.5 88.5L144 85H150V79.5L156 77L168 66.5L176 72.5H185.5L189.5 67.5H197.5L206 147L202 72.5L210.5 77H228L239.5 67.5V72.5L250 77L258 64.5L252.5 79.5L258 81L265 75.5L259.5 94L267 85L285 90.5L282 125L288.5 91.5L298.5 85L300 52H309V58H302.5V84L309 79.5L310 63L315 60V55H312V52L317 53L315 91.5V98.5L309 111.5L320 114V124L327.5 131L331 110L323.5 98.5H318V90.5H326L322 58L329 72.5H333.5V53L343.5 105.5V131H347.5L346 119V110L349 119L353.5 124V116L357 120L366 117.5L367.5 105.5L395.5 110V119L398 132L399 120L421 121H431.5L430 127H426L423 124L424.5 129.5H433V124L442 116L443.5 119L461 113L472.5 105.5L468.5 99.5L467.5 95.5L478.5 93.5V105.5L483.5 102.5V97L507 78L505.5 89L486 99.5V120H489.5V101.5L504 93.5V101.5L501.5 108L508 100.5L511 77L519 70.5V93.5H521.5L523.5 53.5L525.5 63.5L532 53.5L530.5 84H535.5V58H542V85H546.5V61H553V84H557V61H590V89H595V77H601V72.5L595 70.5L597 63.5L604.5 65L612 67.5L623 65V79.5H627.5L625.5 75L628.5 69.5H642V62.5L670.5 58L676.5 69.5L678.5 107L680 69.5L678.5 62.5L697.5 58L719.5 56L708 75L715 85L712.5 75L726.5 53L738 50L753 44.5L755 60.5L753 72L755 82L753 92.5L760 116.5L758 139.5L755 144V168L760 182L756.5 202.5L735 208L726.5 207L721.5 214.5L712 210.5L696.5 226H690.5L689.5 205.5H679.5V196L672 200L665.5 212.5L647 217.5L629.5 216.5L624 247.5L629.5 276.5L601.5 275L566 259L530.5 233L534 223.5L517.5 225.5L479 203.5L480 190L467.5 192L459 168V159L452.5 152.5V145.5L447 141L433 150.5L437 168L431.5 177L419.5 170.5L415.5 176L403 168V154.5L367.5 159L363.5 141L329 147L322 154.5V172.5L302.5 174.5L299 171L292.5 176L263 179.5V170.5H248L199 152L152 120.5L114.5 74.5L110.5 62.5Z" fill="#D9D9D9"/>
<path d="M110.5 62.5L102 54.5L120 46.5H130.5L136.5 38L139.5 43L114.5 60L139.5 88.5L144 85H150V79.5L156 77L168 66.5L176 72.5H185.5L189.5 67.5H197.5L206 147L202 72.5L210.5 77H228L239.5 67.5V72.5L250 77L258 64.5L252.5 79.5L258 81L265 75.5L259.5 94L267 85L285 90.5L282 125L288.5 91.5L298.5 85L300 52H309V58H302.5V84L309 79.5L310 63L315 60V55H312V52L317 53L315 91.5V98.5L309 111.5L320 114V124L327.5 131L331 110L323.5 98.5H318V90.5H326L322 58L329 72.5H333.5V53L343.5 105.5V131H347.5L346 119V110L349 119L353.5 124V116L357 120L366 117.5L367.5 105.5L395.5 110V119L398 132L399 120L421 121H431.5L430 127H426L423 124L424.5 129.5H433V124L442 116L443.5 119L461 113L472.5 105.5L468.5 99.5L467.5 95.5L478.5 93.5V105.5L483.5 102.5V97L507 78L505.5 89L486 99.5V120H489.5V101.5L504 93.5V101.5L501.5 108L508 100.5L511 77L519 70.5V93.5H521.5L523.5 53.5L525.5 63.5L532 53.5L530.5 84H535.5V58H542V85H546.5V61H553V84H557V61H590V89H595V77H601V72.5L595 70.5L597 63.5L604.5 65L612 67.5L623 65V79.5H627.5L625.5 75L628.5 69.5H642V62.5L670.5 58L676.5 69.5L678.5 107L680 69.5L678.5 62.5L697.5 58L719.5 56L708 75L715 85L712.5 75L726.5 53L738 50L753 44.5L755 60.5L753 72L755 82L753 92.5L760 116.5L758 139.5L755 144V168L760 182L756.5 202.5L735 208L726.5 207L721.5 214.5L712 210.5L696.5 226H690.5L689.5 205.5H679.5V196L672 200L665.5 212.5L647 217.5L629.5 216.5L624 247.5L629.5 276.5L601.5 275L566 259L530.5 233L534 223.5L517.5 225.5L479 203.5L480 190L467.5 192L459 168V159L452.5 152.5V145.5L447 141L433 150.5L437 168L431.5 177L419.5 170.5L415.5 176L403 168V154.5L367.5 159L363.5 141L329 147L322 154.5V172.5L302.5 174.5L299 171L292.5 176L263 179.5V170.5H248L199 152L152 120.5L114.5 74.5L110.5 62.5Z" fill="#BDB2FF"/>
<path d="M381 169V161.5L399 159V171L412.5 180L417 190L421 177L437 184L442 169L439 150.5L447 147.5L464 197.5L476 194.5L474 205.5L517.5 230.5L527.5 227.5L511 261.5V299.5H486.5L450 326.5L461 329L459 336L449 333.5L446.5 340L437.5 342.5L384 328L379.5 329L376 351L323 393.5H314.5L317.5 365.5L306 344H316L319.5 331.5L337 315L342.5 295H352.5L353.5 274L322 224.5L326 221.5L331 226H346.5L377 221.5L390 227.5H399L394.5 222L393.5 187.5L381 169Z" fill="#EF476F"/>
<path d="M43.5 68L40.5 62L56 55L66.5 58L72.5 56.5L79 58L83.5 56.5L88 58.5L95.5 54.5L108 66.5L110.5 75.5L149 122.5L197.5 155.5L248 174.5H259.5L258 188.5L267 182.5L295.5 181L298 176L301.5 179.5L326 176V157L331 151.5L360.5 145.5L363.5 165L377 163L377.5 171L390 188.5L391.5 223.5L377 216.5L346.5 221.5L329 219.5V214L316 222.5L348.5 274V291.5H339L333 312.5L316 329L313 339H301L296.5 341.5L291.5 337H280V352.5H264.5L262 364L267 369.5V388.5H243.5L241 376L150 383H116V369.5L122 352.5H128.5L131 333.5L135 327L131 320L133 305L131 300.5H122H106L118.5 288L131 283L62.5 257L55 260L40.5 251.5L43.5 229.5L48 226.5V219.5H40.5L37 177V139.5L43.5 123V114L48 101H59L62.5 94.5L55 82.5L48 86V90H43.5V68Z" fill="#FFD166"/>
<path d="M516 261.5L527.5 237L564 263.5L601.5 280L635 281.5L629.5 247.5L634 220L647 222L668 216.5L676.5 201V209.5H686V229.5H698.5L713.5 216.5L724 223L728.5 210.5L733.5 212.5L755 207V234.5L762.5 255.5L760.5 285.5L753 315L747.5 316L743.5 320.5V335L732.5 351L724.5 353L716.5 370.5H703L696 382.5L692.5 412.5L685.5 416L687 453L677.5 457.5L629 460.5L626.5 449.5L619.5 463.5H608.5L601 459V468.5L587.5 474V499L602.5 505L597 530L600.5 539L605.5 560.5L602.5 565L609.5 572.5L614 567.5L630.5 580.5L627.5 603L633.5 610.5L627.5 626.5L630.5 635L621.5 644L627.5 649V659L623 685H619L617.5 716L611 724L615.5 734L611 743L596 734L591 726.5L589.5 734L575.5 751L562.5 756L548.5 748.5L542.5 760.5L536 761.5L531.5 754.5L533 745L526.5 743L519.5 732L503 729L510.5 718.5L503 710.5L481 721L467.5 705V694.5L471 689.5L454 683.5L445 673V670L429.5 671L427 659L436.5 638.5L426 628V625.5L454 616.5L458 609L467.5 614L472.5 589L455 573.5L461.5 559L447.5 540V521.5L467.5 502L464.5 483L479 476L475.5 457.5L485.5 451.5L482 438.5L486.5 418L493.5 421V410L488 401L490 378L480.5 373L482 365.5L486.5 361H470L472 353.5L461 347L451 338L462 340L465 326.5L458 325L488 304H515L516 261.5Z" fill="#06D6A0"/>
<path d="M166.5 385L236 379.5L239 393.5H272V366.5L268.5 363L269.5 358H280L284.5 354.5V342.5H291.5L296.5 346.5L301 344L313 365.5L310 397H325.5L379.5 352.5L382.5 333.5L437.5 347L447.5 344L466.5 354.5L465 365.5H475.5L473.5 376L483 379.5V401L488 410L483 415.5L478 437L480.5 449.5L468.5 454.5L473.5 474L459.5 480L461.5 497.5L442.5 520V541.5L455 559L447.5 575L467.5 590.5L465 606.5L455 600L451 612.5L419 622.5V631L429.5 638.5L421.5 659L424 671V685L421.5 706.5L414 714.5L364 719L348 737.5L313 742L306.5 737.5L303.5 698.5L318.5 688V671L322.5 659H328.5L335 638.5L343 631V618.5L348 612.5L270 615L258.5 600L262 583.5L252 580L247.5 564.5H241V548.5L223 541.5L229.5 520L202.5 510L205 484.5L202.5 477L207.5 456.5L194 449.5L188.5 441.5L194 424.5L188.5 413H181.5L185 401L166.5 385Z" fill="#118AB2"/>
</svg>
